<svg xmlns="http://www.w3.org/2000/svg" xmlns:xlink="http://www.w3.org/1999/xlink" width="1080" zoomAndPan="magnify" viewBox="0 0 810 809.999993" height="1080" preserveAspectRatio="xMidYMid meet" version="1.0"><defs><clipPath id="e6c785c57e"><path d="M 312 299.890625 L 500 299.890625 L 500 534 L 312 534 Z M 312 299.890625 " clip-rule="nonzero"/></clipPath></defs><g clip-path="url(#e6c785c57e)"><path fill="#ffc832" d="M 498.378906 299.890625 L 359.066406 332.238281 L 359.066406 486.855469 C 356.890625 486.035156 354.652344 485.4375 352.355469 485.070312 C 350.058594 484.699219 347.75 484.5625 345.421875 484.660156 C 343.097656 484.757812 340.808594 485.085938 338.550781 485.648438 C 336.292969 486.207031 334.113281 486.988281 332.011719 487.988281 C 331.171875 488.25 330.34375 488.554688 329.53125 488.898438 C 328.71875 489.238281 327.925781 489.621094 327.148438 490.039062 C 326.371094 490.453125 325.617188 490.910156 324.882812 491.398438 C 324.148438 491.886719 323.441406 492.410156 322.757812 492.96875 C 322.074219 493.523438 321.417969 494.109375 320.789062 494.730469 C 320.164062 495.347656 319.566406 495.996094 319 496.671875 C 318.433594 497.347656 317.902344 498.046875 317.402344 498.773438 C 316.902344 499.5 316.4375 500.246094 316.007812 501.015625 C 315.582031 501.785156 315.191406 502.574219 314.835938 503.382812 C 314.484375 504.1875 314.167969 505.011719 313.894531 505.847656 C 313.617188 506.683594 313.382812 507.53125 313.1875 508.390625 C 312.996094 509.25 312.839844 510.117188 312.730469 510.988281 C 312.617188 511.863281 312.546875 512.738281 312.519531 513.621094 C 312.488281 514.5 312.503906 515.378906 312.558594 516.257812 C 312.613281 517.136719 312.707031 518.011719 312.847656 518.882812 C 312.984375 519.753906 313.164062 520.613281 313.382812 521.464844 C 313.867188 522.203125 314.386719 522.917969 314.941406 523.609375 C 315.492188 524.296875 316.078125 524.957031 316.695312 525.589844 C 317.308594 526.226562 317.957031 526.828125 318.628906 527.398438 C 319.304688 527.96875 320.003906 528.507812 320.730469 529.011719 C 321.453125 529.519531 322.203125 529.988281 322.972656 530.417969 C 323.746094 530.851562 324.535156 531.246094 325.34375 531.605469 C 326.152344 531.964844 326.976562 532.28125 327.8125 532.558594 C 328.652344 532.839844 329.503906 533.078125 330.367188 533.273438 C 331.226562 533.472656 332.097656 533.628906 332.972656 533.742188 C 333.851562 533.855469 334.730469 533.929688 335.613281 533.957031 C 336.5 533.988281 337.382812 533.976562 338.265625 533.921875 C 339.148438 533.867188 340.027344 533.773438 340.898438 533.632812 C 341.773438 533.496094 342.636719 533.316406 343.492188 533.09375 C 344.351562 532.875 345.195312 532.613281 346.023438 532.308594 C 346.855469 532.007812 347.671875 531.667969 348.46875 531.289062 C 349.265625 530.910156 350.046875 530.492188 350.804688 530.039062 C 352.03125 529.566406 353.226562 529.023438 354.390625 528.40625 C 355.550781 527.789062 356.671875 527.105469 357.75 526.351562 C 358.828125 525.601562 359.859375 524.785156 360.835938 523.90625 C 361.816406 523.03125 362.738281 522.09375 363.601562 521.105469 C 364.46875 520.117188 365.269531 519.078125 366.007812 517.988281 C 366.746094 516.902344 367.414062 515.773438 368.015625 514.605469 C 368.617188 513.4375 369.144531 512.234375 369.597656 511 C 370.050781 509.769531 370.429688 508.511719 370.730469 507.234375 C 370.894531 505.347656 370.894531 503.460938 370.730469 501.574219 L 370.730469 364.582031 L 486.390625 336.925781 L 486.390625 457.417969 C 484.214844 456.597656 481.976562 456.003906 479.679688 455.632812 C 477.382812 455.265625 475.074219 455.128906 472.75 455.226562 C 470.425781 455.324219 468.132812 455.652344 465.875 456.210938 C 463.617188 456.769531 461.4375 457.550781 459.339844 458.550781 C 458.511719 458.832031 457.703125 459.148438 456.90625 459.503906 C 456.109375 459.863281 455.332031 460.253906 454.574219 460.683594 C 453.816406 461.113281 453.078125 461.578125 452.363281 462.078125 C 451.648438 462.578125 450.960938 463.109375 450.296875 463.671875 C 449.628906 464.238281 448.996094 464.832031 448.386719 465.457031 C 447.777344 466.078125 447.199219 466.730469 446.652344 467.410156 C 446.105469 468.089844 445.59375 468.792969 445.113281 469.519531 C 444.632812 470.246094 444.1875 470.992188 443.78125 471.761719 C 443.371094 472.53125 443 473.320312 442.664062 474.121094 C 442.328125 474.925781 442.03125 475.746094 441.773438 476.578125 C 441.515625 477.410156 441.300781 478.25 441.121094 479.105469 C 440.945312 479.957031 440.808594 480.816406 440.710938 481.679688 C 440.613281 482.546875 440.558594 483.414062 440.542969 484.285156 C 440.53125 485.15625 440.554688 486.027344 440.625 486.894531 C 440.691406 487.761719 440.800781 488.625 440.949219 489.484375 C 441.101562 490.339844 441.289062 491.191406 441.519531 492.03125 C 442.007812 492.765625 442.527344 493.476562 443.085938 494.160156 C 443.640625 494.847656 444.226562 495.503906 444.84375 496.132812 C 445.460938 496.761719 446.109375 497.363281 446.785156 497.929688 C 447.460938 498.5 448.160156 499.035156 448.886719 499.535156 C 449.613281 500.039062 450.359375 500.503906 451.128906 500.933594 C 451.902344 501.367188 452.691406 501.757812 453.5 502.117188 C 454.304688 502.472656 455.128906 502.789062 455.96875 503.066406 C 456.804688 503.34375 457.65625 503.582031 458.515625 503.777344 C 459.375 503.976562 460.242188 504.132812 461.121094 504.246094 C 461.996094 504.359375 462.875 504.433594 463.757812 504.464844 C 464.640625 504.496094 465.519531 504.484375 466.402344 504.433594 C 467.285156 504.382812 468.160156 504.285156 469.035156 504.152344 C 469.90625 504.015625 470.769531 503.839844 471.625 503.621094 C 472.480469 503.402344 473.324219 503.144531 474.15625 502.847656 C 474.988281 502.550781 475.800781 502.214844 476.601562 501.839844 C 477.402344 501.464844 478.179688 501.050781 478.941406 500.601562 C 480.351562 500.078125 481.71875 499.449219 483.039062 498.726562 C 484.359375 498 485.617188 497.183594 486.820312 496.273438 C 488.019531 495.363281 489.148438 494.375 490.203125 493.300781 C 491.257812 492.226562 492.230469 491.082031 493.117188 489.867188 C 494.003906 488.648438 494.800781 487.375 495.5 486.046875 C 496.203125 484.714844 496.804688 483.339844 497.304688 481.921875 C 497.804688 480.5 498.199219 479.054688 498.488281 477.578125 C 498.777344 476.101562 498.957031 474.609375 499.027344 473.109375 L 499.027344 334.664062 Z M 498.378906 299.890625 " fill-opacity="1" fill-rule="nonzero"/></g></svg>