<svg xmlns="http://www.w3.org/2000/svg" xmlns:xlink="http://www.w3.org/1999/xlink" width="1080" zoomAndPan="magnify" viewBox="0 0 810 809.999993" height="1080" preserveAspectRatio="xMidYMid meet" version="1.0"><defs><clipPath id="102f165b42"><path d="M 375 469 L 435 469 L 435 493.308594 L 375 493.308594 Z M 375 469 " clip-rule="nonzero"/></clipPath><clipPath id="3b717ab134"><path d="M 297.378906 257 L 512.628906 257 L 512.628906 462 L 297.378906 462 Z M 297.378906 257 " clip-rule="nonzero"/></clipPath></defs><g clip-path="url(#102f165b42)"><path fill="#ffc832" d="M 405.003906 482.589844 C 396.449219 482.589844 388.742188 477.535156 385.292969 469.699219 L 375.460938 473.996094 C 380.613281 485.707031 392.195312 493.308594 405.003906 493.308594 C 418.003906 493.308594 429.632812 485.613281 434.691406 473.664062 L 424.8125 469.460938 C 421.40625 477.441406 413.65625 482.589844 405.003906 482.589844 Z M 405.003906 482.589844 " fill-opacity="1" fill-rule="nonzero"/></g><g clip-path="url(#3b717ab134)"><path fill="#ffc832" d="M 510.511719 446.277344 L 482.148438 422.667969 C 480.921875 421.628906 480.210938 420.164062 480.210938 418.558594 L 480.210938 353.773438 C 480.210938 333.042969 471.9375 313.730469 456.90625 299.421875 C 448.066406 291.015625 437.574219 285.066406 426.230469 281.761719 C 426.464844 280.109375 426.558594 278.453125 426.417969 276.707031 C 425.613281 267.546875 418.855469 259.753906 409.96875 257.773438 C 403.445312 256.308594 396.734375 257.820312 391.582031 261.925781 C 386.476562 266.035156 383.542969 272.128906 383.542969 278.691406 C 383.542969 279.777344 383.734375 280.769531 383.875 281.808594 C 352.488281 291.15625 329.796875 320.71875 329.796875 355.753906 L 329.796875 418.511719 C 329.796875 420.117188 329.089844 421.628906 327.859375 422.621094 L 299.5 446.230469 C 298.269531 447.269531 297.558594 448.78125 297.558594 450.335938 L 297.558594 455.722656 C 297.558594 458.695312 299.972656 461.105469 302.949219 461.105469 L 507.058594 461.105469 C 510.039062 461.105469 512.449219 458.695312 512.449219 455.722656 L 512.449219 450.335938 C 512.402344 448.78125 511.691406 447.269531 510.511719 446.277344 Z M 394.226562 278.691406 C 394.226562 275.386719 395.691406 272.363281 398.246094 270.285156 C 400.84375 268.207031 404.105469 267.453125 407.558594 268.207031 C 411.859375 269.199219 415.261719 273.117188 415.6875 277.605469 C 415.734375 278.21875 415.640625 278.832031 415.59375 279.445312 C 410.914062 278.785156 406.1875 278.550781 401.316406 278.738281 C 398.953125 278.832031 396.589844 279.070312 394.273438 279.445312 C 394.320312 279.164062 394.226562 278.925781 394.226562 278.691406 Z M 311.316406 450.386719 L 334.714844 430.882812 C 338.402344 427.8125 340.527344 423.328125 340.527344 418.511719 L 340.527344 355.753906 C 340.527344 320.199219 367.472656 291.0625 401.886719 289.457031 C 419.753906 288.605469 436.628906 294.933594 449.484375 307.164062 C 462.34375 319.441406 469.433594 335.96875 469.433594 353.773438 L 469.433594 418.511719 C 469.433594 423.28125 471.5625 427.8125 475.246094 430.882812 L 498.644531 450.386719 Z M 311.316406 450.386719 " fill-opacity="1" fill-rule="nonzero"/></g></svg>