<svg xmlns="http://www.w3.org/2000/svg" xmlns:xlink="http://www.w3.org/1999/xlink" width="1080" zoomAndPan="magnify" viewBox="0 0 810 809.999993" height="1080" preserveAspectRatio="xMidYMid meet" version="1.0"><defs><clipPath id="fb4f4a4c83"><path d="M 357.074219 243 L 453.074219 243 L 453.074219 567 L 357.074219 567 Z M 357.074219 243 " clip-rule="nonzero"/></clipPath></defs><g clip-path="url(#fb4f4a4c83)"><path fill="#ffd832" d="M 429.113281 477.59375 C 443.457031 485.855469 453.074219 501.359375 453.074219 519.066406 C 453.074219 545.503906 431.554688 566.988281 405.074219 566.988281 C 378.589844 566.988281 357.074219 545.503906 357.074219 519.066406 C 357.074219 501.359375 366.6875 485.855469 381.035156 477.59375 L 381.035156 266.933594 C 381.035156 253.792969 391.832031 243.011719 404.992188 243.011719 C 418.15625 243.011719 428.953125 253.792969 428.953125 266.933594 L 428.953125 310.6875 L 445.425781 310.6875 L 445.425781 316.824219 L 428.953125 316.824219 L 428.953125 355.542969 L 445.425781 355.542969 L 445.425781 361.679688 L 428.953125 361.679688 L 428.953125 400.394531 L 445.425781 400.394531 L 445.425781 406.535156 L 428.953125 406.535156 L 428.953125 445.25 L 445.425781 445.25 L 445.425781 451.390625 L 428.953125 451.390625 L 428.953125 477.828125 Z M 414.375 486.484375 L 414.375 387.570312 L 395.773438 387.570312 L 395.773438 486.484375 C 381.507812 490.5 371.101562 503.5625 371.101562 519.066406 C 371.101562 537.792969 386.3125 552.980469 405.074219 552.980469 C 423.832031 552.980469 439.042969 537.792969 439.042969 519.066406 C 439.042969 503.5625 428.640625 490.5 414.375 486.484375 Z M 420.441406 482.550781 L 420.441406 266.933594 C 420.441406 258.511719 413.507812 251.589844 405.074219 251.589844 C 396.640625 251.589844 389.703125 258.511719 389.703125 266.933594 L 389.703125 482.550781 L 385.367188 485.070312 C 373.230469 492.074219 365.664062 505.058594 365.664062 519.144531 C 365.664062 540.863281 383.320312 558.410156 404.992188 558.410156 C 426.746094 558.410156 444.324219 540.785156 444.324219 519.144531 C 444.324219 505.058594 436.835938 492.152344 424.621094 485.070312 L 420.285156 482.550781 Z M 420.441406 482.550781 " fill-opacity="1" fill-rule="evenodd"/></g></svg>