<svg xmlns="http://www.w3.org/2000/svg" xmlns:xlink="http://www.w3.org/1999/xlink" width="1080" zoomAndPan="magnify" viewBox="0 0 810 809.999993" height="1080" preserveAspectRatio="xMidYMid meet" version="1.0"><path fill="#ffc832" d="M 405 486.972656 C 403.402344 486.972656 401.804688 486.933594 400.207031 486.855469 C 398.613281 486.777344 397.019531 486.660156 395.429688 486.5 C 393.835938 486.34375 392.253906 486.148438 390.671875 485.914062 C 389.089844 485.679688 387.515625 485.40625 385.949219 485.097656 C 384.382812 484.785156 382.824219 484.433594 381.273438 484.046875 C 379.722656 483.65625 378.183594 483.230469 376.652344 482.765625 C 375.125 482.304688 373.605469 481.800781 372.101562 481.265625 C 370.597656 480.726562 369.105469 480.152344 367.628906 479.539062 C 366.152344 478.929688 364.691406 478.28125 363.246094 477.597656 C 361.804688 476.914062 360.375 476.195312 358.964844 475.441406 C 357.558594 474.6875 356.167969 473.902344 354.796875 473.078125 C 353.425781 472.257812 352.074219 471.402344 350.746094 470.515625 C 349.417969 469.628906 348.109375 468.707031 346.828125 467.757812 C 345.542969 466.804688 344.285156 465.820312 343.046875 464.808594 C 341.8125 463.792969 340.601562 462.75 339.417969 461.675781 C 338.234375 460.605469 337.078125 459.503906 335.949219 458.371094 C 334.816406 457.242188 333.714844 456.085938 332.640625 454.902344 C 331.570312 453.71875 330.523438 452.507812 329.511719 451.273438 C 328.496094 450.039062 327.515625 448.777344 326.5625 447.496094 C 325.609375 446.210938 324.691406 444.90625 323.800781 443.574219 C 322.914062 442.246094 322.058594 440.898438 321.238281 439.527344 C 320.414062 438.15625 319.628906 436.765625 318.875 435.355469 C 318.121094 433.945312 317.402344 432.519531 316.71875 431.074219 C 316.035156 429.628906 315.386719 428.171875 314.777344 426.695312 C 314.164062 425.21875 313.589844 423.726562 313.050781 422.222656 C 312.511719 420.71875 312.011719 419.199219 311.546875 417.671875 C 311.082031 416.140625 310.65625 414.601562 310.265625 413.050781 C 309.878906 411.5 309.527344 409.941406 309.214844 408.375 C 308.90625 406.808594 308.632812 405.234375 308.394531 403.652344 C 308.160156 402.070312 307.964844 400.488281 307.808594 398.894531 C 307.652344 397.304688 307.535156 395.710938 307.457031 394.117188 C 307.375 392.519531 307.335938 390.921875 307.335938 389.324219 C 307.335938 387.726562 307.375 386.128906 307.453125 384.53125 C 307.53125 382.9375 307.648438 381.34375 307.804688 379.753906 C 307.960938 378.164062 308.15625 376.578125 308.390625 374.996094 C 308.625 373.414062 308.898438 371.839844 309.210938 370.273438 C 309.523438 368.707031 309.871094 367.148438 310.257812 365.597656 C 310.648438 364.046875 311.074219 362.507812 311.539062 360.976562 C 312 359.445312 312.5 357.929688 313.039062 356.425781 C 313.578125 354.921875 314.152344 353.429688 314.765625 351.953125 C 315.375 350.476562 316.023438 349.015625 316.707031 347.570312 C 317.386719 346.125 318.105469 344.699219 318.859375 343.289062 C 319.613281 341.878906 320.398438 340.488281 321.222656 339.117188 C 322.042969 337.746094 322.898438 336.398438 323.785156 335.066406 C 324.671875 333.738281 325.589844 332.433594 326.542969 331.148438 C 327.496094 329.863281 328.476562 328.605469 329.492188 327.371094 C 330.503906 326.132812 331.546875 324.925781 332.621094 323.738281 C 333.695312 322.554688 334.796875 321.398438 335.925781 320.265625 C 337.054688 319.136719 338.210938 318.035156 339.394531 316.960938 C 340.578125 315.886719 341.789062 314.84375 343.023438 313.828125 C 344.261719 312.816406 345.519531 311.832031 346.800781 310.878906 C 348.085938 309.929688 349.390625 309.007812 350.71875 308.121094 C 352.050781 307.230469 353.398438 306.375 354.769531 305.554688 C 356.140625 304.730469 357.53125 303.945312 358.9375 303.191406 C 360.347656 302.4375 361.773438 301.71875 363.21875 301.035156 C 364.664062 300.351562 366.125 299.703125 367.601562 299.089844 C 369.078125 298.480469 370.566406 297.902344 372.074219 297.363281 C 373.578125 296.824219 375.09375 296.324219 376.625 295.859375 C 378.152344 295.394531 379.691406 294.96875 381.242188 294.578125 C 382.792969 294.191406 384.351562 293.839844 385.917969 293.527344 C 387.484375 293.214844 389.058594 292.941406 390.640625 292.707031 C 392.222656 292.472656 393.808594 292.277344 395.398438 292.121094 C 396.988281 291.960938 398.582031 291.84375 400.175781 291.765625 C 401.773438 291.6875 403.371094 291.648438 404.96875 291.644531 C 406.566406 291.644531 408.164062 291.683594 409.761719 291.761719 C 411.355469 291.839844 412.949219 291.957031 414.539062 292.113281 C 416.132812 292.269531 417.71875 292.464844 419.296875 292.699219 C 420.878906 292.933594 422.453125 293.207031 424.019531 293.515625 C 425.589844 293.828125 427.148438 294.175781 428.699219 294.566406 C 430.25 294.953125 431.789062 295.378906 433.316406 295.84375 C 434.847656 296.304688 436.363281 296.804688 437.871094 297.34375 C 439.375 297.882812 440.863281 298.457031 442.34375 299.066406 C 443.820312 299.679688 445.28125 300.324219 446.722656 301.007812 C 448.167969 301.691406 449.597656 302.410156 451.007812 303.160156 C 452.417969 303.914062 453.804688 304.703125 455.175781 305.523438 C 456.546875 306.34375 457.898438 307.199219 459.226562 308.085938 C 460.558594 308.972656 461.863281 309.890625 463.148438 310.84375 C 464.433594 311.796875 465.691406 312.777344 466.925781 313.789062 C 468.164062 314.804688 469.375 315.847656 470.558594 316.921875 C 471.742188 317.992188 472.898438 319.09375 474.03125 320.222656 C 475.160156 321.351562 476.261719 322.511719 477.335938 323.695312 C 478.410156 324.878906 479.453125 326.085938 480.46875 327.320312 C 481.484375 328.558594 482.46875 329.816406 483.417969 331.097656 C 484.371094 332.382812 485.292969 333.6875 486.179688 335.015625 C 487.070312 336.34375 487.925781 337.695312 488.746094 339.066406 C 489.570312 340.4375 490.355469 341.824219 491.113281 343.234375 C 491.867188 344.644531 492.585938 346.070312 493.269531 347.515625 C 493.953125 348.960938 494.601562 350.417969 495.210938 351.894531 C 495.824219 353.371094 496.398438 354.863281 496.9375 356.367188 C 497.476562 357.871094 497.980469 359.386719 498.445312 360.917969 C 498.910156 362.445312 499.335938 363.984375 499.726562 365.535156 C 500.113281 367.085938 500.464844 368.644531 500.777344 370.210938 C 501.089844 371.78125 501.363281 373.355469 501.597656 374.933594 C 501.835938 376.515625 502.03125 378.101562 502.1875 379.691406 C 502.34375 381.28125 502.464844 382.875 502.542969 384.472656 C 502.621094 386.066406 502.660156 387.664062 502.664062 389.261719 C 502.660156 390.859375 502.621094 392.457031 502.539062 394.054688 C 502.460938 395.652344 502.34375 397.242188 502.183594 398.835938 C 502.027344 400.425781 501.828125 402.011719 501.59375 403.589844 C 501.359375 405.171875 501.085938 406.746094 500.769531 408.3125 C 500.457031 409.878906 500.105469 411.4375 499.71875 412.988281 C 499.328125 414.539062 498.902344 416.078125 498.4375 417.609375 C 497.972656 419.136719 497.472656 420.652344 496.933594 422.160156 C 496.394531 423.664062 495.816406 425.152344 495.203125 426.628906 C 494.59375 428.105469 493.945312 429.566406 493.261719 431.011719 C 492.578125 432.457031 491.859375 433.882812 491.105469 435.292969 C 490.351562 436.699219 489.5625 438.089844 488.742188 439.460938 C 487.921875 440.832031 487.066406 442.183594 486.175781 443.511719 C 485.289062 444.839844 484.371094 446.144531 483.417969 447.429688 C 482.464844 448.714844 481.480469 449.972656 480.46875 451.207031 C 479.453125 452.445312 478.410156 453.652344 477.339844 454.839844 C 476.265625 456.023438 475.164062 457.179688 474.035156 458.308594 C 472.902344 459.441406 471.746094 460.542969 470.5625 461.617188 C 469.378906 462.691406 468.171875 463.734375 466.933594 464.75 C 465.699219 465.761719 464.441406 466.746094 463.15625 467.699219 C 461.875 468.652344 460.570312 469.570312 459.238281 470.460938 C 457.910156 471.347656 456.5625 472.203125 455.191406 473.027344 C 453.820312 473.851562 452.433594 474.636719 451.023438 475.390625 C 449.613281 476.148438 448.1875 476.867188 446.742188 477.550781 C 445.300781 478.234375 443.839844 478.882812 442.363281 479.496094 C 440.886719 480.109375 439.398438 480.683594 437.894531 481.226562 C 436.386719 481.765625 434.871094 482.269531 433.34375 482.734375 C 431.8125 483.199219 430.273438 483.625 428.726562 484.015625 C 427.175781 484.40625 425.617188 484.757812 424.050781 485.070312 C 422.480469 485.386719 420.90625 485.660156 419.328125 485.894531 C 417.746094 486.132812 416.160156 486.332031 414.570312 486.488281 C 412.980469 486.648438 411.386719 486.765625 409.792969 486.847656 C 408.195312 486.929688 406.597656 486.96875 405 486.972656 Z M 405 296.785156 C 403.484375 296.785156 401.972656 296.820312 400.457031 296.894531 C 398.945312 296.96875 397.433594 297.082031 395.925781 297.230469 C 394.417969 297.378906 392.914062 297.5625 391.417969 297.785156 C 389.917969 298.007812 388.425781 298.265625 386.941406 298.5625 C 385.453125 298.859375 383.976562 299.191406 382.507812 299.558594 C 381.039062 299.925781 379.578125 300.332031 378.128906 300.769531 C 376.679688 301.210938 375.238281 301.683594 373.8125 302.195312 C 372.386719 302.707031 370.972656 303.25 369.574219 303.832031 C 368.175781 304.410156 366.789062 305.023438 365.421875 305.671875 C 364.050781 306.320312 362.699219 307 361.363281 307.714844 C 360.027344 308.429688 358.707031 309.175781 357.410156 309.953125 C 356.109375 310.734375 354.828125 311.542969 353.570312 312.386719 C 352.308594 313.226562 351.070312 314.097656 349.855469 315 C 348.636719 315.902344 347.445312 316.835938 346.273438 317.796875 C 345.101562 318.757812 343.957031 319.746094 342.832031 320.765625 C 341.710938 321.78125 340.613281 322.828125 339.542969 323.898438 C 338.472656 324.96875 337.425781 326.066406 336.410156 327.1875 C 335.390625 328.3125 334.402344 329.457031 333.441406 330.628906 C 332.480469 331.800781 331.546875 332.992188 330.644531 334.210938 C 329.742188 335.425781 328.871094 336.664062 328.03125 337.925781 C 327.1875 339.183594 326.378906 340.464844 325.597656 341.765625 C 324.820312 343.0625 324.074219 344.382812 323.359375 345.71875 C 322.644531 347.054688 321.964844 348.40625 321.316406 349.777344 C 320.667969 351.144531 320.054688 352.53125 319.476562 353.929688 C 318.894531 355.328125 318.351562 356.742188 317.839844 358.167969 C 317.328125 359.59375 316.855469 361.035156 316.414062 362.484375 C 315.976562 363.933594 315.570312 365.394531 315.203125 366.863281 C 314.835938 368.332031 314.503906 369.808594 314.207031 371.296875 C 313.910156 372.78125 313.652344 374.273438 313.429688 375.773438 C 313.207031 377.269531 313.023438 378.773438 312.875 380.28125 C 312.726562 381.789062 312.613281 383.300781 312.539062 384.8125 C 312.464844 386.328125 312.429688 387.839844 312.429688 389.355469 C 312.429688 390.871094 312.464844 392.382812 312.539062 393.898438 C 312.613281 395.410156 312.726562 396.921875 312.875 398.429688 C 313.023438 399.9375 313.207031 401.441406 313.429688 402.9375 C 313.652344 404.4375 313.910156 405.929688 314.207031 407.414062 C 314.503906 408.902344 314.835938 410.378906 315.203125 411.847656 C 315.570312 413.316406 315.976562 414.777344 316.414062 416.226562 C 316.855469 417.675781 317.328125 419.117188 317.839844 420.542969 C 318.351562 421.96875 318.894531 423.382812 319.476562 424.78125 C 320.054688 426.179688 320.667969 427.566406 321.316406 428.933594 C 321.964844 430.304688 322.644531 431.65625 323.359375 432.992188 C 324.074219 434.328125 324.820312 435.648438 325.597656 436.945312 C 326.378906 438.246094 327.1875 439.527344 328.03125 440.785156 C 328.871094 442.046875 329.742188 443.285156 330.644531 444.5 C 331.546875 445.71875 332.480469 446.910156 333.441406 448.082031 C 334.402344 449.253906 335.390625 450.398438 336.410156 451.523438 C 337.425781 452.644531 338.472656 453.742188 339.542969 454.8125 C 340.613281 455.882812 341.710938 456.929688 342.832031 457.945312 C 343.957031 458.964844 345.101562 459.953125 346.273438 460.914062 C 347.445312 461.875 348.636719 462.808594 349.855469 463.710938 C 351.070312 464.613281 352.308594 465.484375 353.570312 466.324219 C 354.828125 467.167969 356.109375 467.976562 357.410156 468.757812 C 358.707031 469.535156 360.027344 470.28125 361.363281 470.996094 C 362.699219 471.710938 364.050781 472.390625 365.421875 473.039062 C 366.789062 473.6875 368.175781 474.300781 369.574219 474.878906 C 370.972656 475.460938 372.386719 476.003906 373.8125 476.515625 C 375.238281 477.027344 376.679688 477.5 378.128906 477.941406 C 379.578125 478.378906 381.039062 478.785156 382.507812 479.152344 C 383.976562 479.519531 385.453125 479.851562 386.941406 480.148438 C 388.425781 480.445312 389.917969 480.703125 391.417969 480.925781 C 392.914062 481.148438 394.417969 481.332031 395.925781 481.480469 C 397.433594 481.628906 398.945312 481.742188 400.457031 481.816406 C 401.972656 481.890625 403.484375 481.925781 405 481.925781 C 406.515625 481.925781 408.027344 481.890625 409.542969 481.816406 C 411.054688 481.742188 412.566406 481.628906 414.074219 481.480469 C 415.582031 481.332031 417.085938 481.148438 418.582031 480.925781 C 420.082031 480.703125 421.574219 480.445312 423.058594 480.148438 C 424.546875 479.851562 426.023438 479.519531 427.492188 479.152344 C 428.960938 478.785156 430.421875 478.378906 431.871094 477.941406 C 433.320312 477.5 434.761719 477.027344 436.1875 476.515625 C 437.613281 476.003906 439.027344 475.460938 440.425781 474.878906 C 441.824219 474.300781 443.210938 473.6875 444.578125 473.039062 C 445.949219 472.390625 447.300781 471.710938 448.636719 470.996094 C 449.972656 470.28125 451.292969 469.535156 452.589844 468.757812 C 453.890625 467.976562 455.171875 467.167969 456.429688 466.324219 C 457.691406 465.484375 458.929688 464.613281 460.144531 463.710938 C 461.363281 462.808594 462.554688 461.875 463.726562 460.914062 C 464.898438 459.953125 466.042969 458.964844 467.167969 457.945312 C 468.289062 456.929688 469.386719 455.882812 470.457031 454.8125 C 471.527344 453.742188 472.574219 452.644531 473.589844 451.523438 C 474.609375 450.398438 475.597656 449.253906 476.558594 448.082031 C 477.519531 446.910156 478.453125 445.71875 479.355469 444.5 C 480.257812 443.285156 481.128906 442.046875 481.96875 440.785156 C 482.8125 439.527344 483.621094 438.246094 484.402344 436.945312 C 485.179688 435.648438 485.925781 434.328125 486.640625 432.992188 C 487.355469 431.65625 488.035156 430.304688 488.683594 428.933594 C 489.332031 427.566406 489.945312 426.179688 490.523438 424.78125 C 491.105469 423.382812 491.648438 421.96875 492.160156 420.542969 C 492.671875 419.117188 493.144531 417.675781 493.585938 416.226562 C 494.023438 414.777344 494.429688 413.316406 494.796875 411.847656 C 495.164062 410.378906 495.496094 408.902344 495.792969 407.414062 C 496.089844 405.929688 496.347656 404.4375 496.570312 402.9375 C 496.792969 401.441406 496.976562 399.9375 497.125 398.429688 C 497.273438 396.921875 497.386719 395.410156 497.460938 393.898438 C 497.535156 392.382812 497.570312 390.871094 497.570312 389.355469 C 497.570312 387.839844 497.535156 386.324219 497.460938 384.8125 C 497.386719 383.296875 497.277344 381.785156 497.128906 380.277344 C 496.980469 378.769531 496.796875 377.265625 496.574219 375.769531 C 496.355469 374.269531 496.09375 372.777344 495.800781 371.289062 C 495.503906 369.800781 495.175781 368.324219 494.808594 366.855469 C 494.4375 365.382812 494.035156 363.921875 493.597656 362.472656 C 493.15625 361.023438 492.683594 359.582031 492.171875 358.15625 C 491.664062 356.730469 491.117188 355.316406 490.539062 353.914062 C 489.957031 352.515625 489.34375 351.128906 488.699219 349.761719 C 488.050781 348.390625 487.371094 347.035156 486.65625 345.699219 C 485.941406 344.363281 485.195312 343.042969 484.417969 341.742188 C 483.636719 340.445312 482.828125 339.164062 481.988281 337.902344 C 481.144531 336.644531 480.273438 335.402344 479.371094 334.1875 C 478.46875 332.96875 477.535156 331.773438 476.574219 330.601562 C 475.613281 329.429688 474.625 328.285156 473.609375 327.160156 C 472.589844 326.035156 471.546875 324.941406 470.472656 323.867188 C 469.402344 322.796875 468.304688 321.75 467.183594 320.734375 C 466.0625 319.714844 464.914062 318.726562 463.742188 317.761719 C 462.570312 316.800781 461.375 315.871094 460.160156 314.964844 C 458.941406 314.0625 457.703125 313.191406 456.445312 312.347656 C 455.183594 311.507812 453.90625 310.695312 452.605469 309.917969 C 451.304688 309.136719 449.988281 308.390625 448.652344 307.675781 C 447.3125 306.960938 445.960938 306.277344 444.589844 305.632812 C 443.222656 304.984375 441.835938 304.367188 440.4375 303.789062 C 439.035156 303.207031 437.621094 302.664062 436.195312 302.152344 C 434.769531 301.640625 433.332031 301.167969 431.878906 300.726562 C 430.429688 300.285156 428.96875 299.882812 427.5 299.515625 C 426.03125 299.144531 424.550781 298.8125 423.066406 298.519531 C 421.578125 298.222656 420.085938 297.960938 418.585938 297.742188 C 417.089844 297.519531 415.585938 297.332031 414.078125 297.183594 C 412.566406 297.035156 411.058594 296.921875 409.542969 296.847656 C 408.03125 296.773438 406.515625 296.738281 405 296.738281 Z M 405 296.785156 " fill-opacity="1" fill-rule="nonzero"/><path fill="#ffc832" d="M 405 430.457031 C 403.652344 430.457031 402.308594 430.390625 400.964844 430.257812 C 399.625 430.125 398.292969 429.929688 396.972656 429.667969 C 395.652344 429.402344 394.34375 429.078125 393.054688 428.683594 C 391.765625 428.292969 390.5 427.839844 389.253906 427.324219 C 388.007812 426.808594 386.792969 426.234375 385.601562 425.597656 C 384.414062 424.964844 383.261719 424.269531 382.140625 423.523438 C 381.019531 422.773438 379.9375 421.972656 378.894531 421.117188 C 377.855469 420.261719 376.855469 419.359375 375.902344 418.40625 C 374.949219 417.453125 374.046875 416.453125 373.191406 415.414062 C 372.335938 414.371094 371.535156 413.289062 370.785156 412.167969 C 370.039062 411.050781 369.347656 409.894531 368.710938 408.707031 C 368.074219 407.519531 367.5 406.300781 366.984375 405.054688 C 366.46875 403.8125 366.015625 402.542969 365.625 401.253906 C 365.234375 399.964844 364.90625 398.660156 364.644531 397.335938 C 364.378906 396.015625 364.183594 394.683594 364.050781 393.34375 C 363.917969 392 363.851562 390.65625 363.851562 389.308594 C 363.851562 387.960938 363.917969 386.617188 364.050781 385.277344 C 364.183594 383.933594 364.378906 382.601562 364.644531 381.28125 C 364.90625 379.960938 365.234375 378.652344 365.625 377.363281 C 366.015625 376.074219 366.46875 374.808594 366.984375 373.5625 C 367.5 372.316406 368.074219 371.101562 368.710938 369.910156 C 369.347656 368.722656 370.039062 367.570312 370.785156 366.449219 C 371.535156 365.328125 372.335938 364.246094 373.191406 363.207031 C 374.046875 362.164062 374.949219 361.167969 375.902344 360.214844 C 376.855469 359.261719 377.855469 358.355469 378.894531 357.5 C 379.9375 356.644531 381.019531 355.84375 382.140625 355.097656 C 383.261719 354.347656 384.414062 353.65625 385.601562 353.019531 C 386.792969 352.382812 388.007812 351.808594 389.253906 351.292969 C 390.5 350.777344 391.765625 350.324219 393.054688 349.933594 C 394.34375 349.542969 395.652344 349.214844 396.972656 348.953125 C 398.292969 348.6875 399.625 348.492188 400.964844 348.359375 C 402.308594 348.226562 403.652344 348.160156 405 348.160156 C 406.347656 348.160156 407.691406 348.226562 409.035156 348.359375 C 410.375 348.492188 411.707031 348.6875 413.027344 348.953125 C 414.347656 349.214844 415.65625 349.542969 416.945312 349.933594 C 418.234375 350.324219 419.5 350.777344 420.746094 351.292969 C 421.992188 351.808594 423.207031 352.382812 424.398438 353.019531 C 425.585938 353.65625 426.738281 354.347656 427.859375 355.097656 C 428.980469 355.84375 430.0625 356.644531 431.105469 357.5 C 432.144531 358.355469 433.144531 359.261719 434.097656 360.214844 C 435.050781 361.167969 435.953125 362.164062 436.808594 363.207031 C 437.664062 364.246094 438.464844 365.328125 439.214844 366.449219 C 439.960938 367.570312 440.652344 368.722656 441.289062 369.914062 C 441.925781 371.101562 442.5 372.316406 443.015625 373.5625 C 443.53125 374.808594 443.984375 376.074219 444.375 377.363281 C 444.765625 378.652344 445.09375 379.960938 445.355469 381.28125 C 445.621094 382.601562 445.816406 383.933594 445.949219 385.277344 C 446.082031 386.617188 446.148438 387.960938 446.148438 389.308594 C 446.144531 390.65625 446.078125 392 445.945312 393.339844 C 445.8125 394.679688 445.613281 396.011719 445.351562 397.332031 C 445.085938 398.65625 444.757812 399.960938 444.367188 401.25 C 443.972656 402.539062 443.519531 403.804688 443.003906 405.046875 C 442.488281 406.292969 441.910156 407.507812 441.277344 408.695312 C 440.640625 409.886719 439.949219 411.039062 439.199219 412.160156 C 438.449219 413.277344 437.648438 414.359375 436.792969 415.402344 C 435.9375 416.441406 435.035156 417.4375 434.082031 418.390625 C 433.128906 419.34375 432.132812 420.246094 431.089844 421.101562 C 430.050781 421.957031 428.96875 422.757812 427.851562 423.507812 C 426.730469 424.257812 425.574219 424.949219 424.386719 425.585938 C 423.199219 426.21875 421.984375 426.796875 420.738281 427.3125 C 419.496094 427.828125 418.226562 428.28125 416.9375 428.675781 C 415.652344 429.066406 414.34375 429.394531 413.023438 429.660156 C 411.703125 429.921875 410.371094 430.121094 409.03125 430.253906 C 407.691406 430.386719 406.347656 430.457031 405 430.457031 Z M 405 353.300781 C 403.820312 353.300781 402.644531 353.355469 401.46875 353.472656 C 400.296875 353.585938 399.132812 353.761719 397.976562 353.992188 C 396.816406 354.222656 395.675781 354.507812 394.546875 354.847656 C 393.417969 355.191406 392.308594 355.589844 391.21875 356.039062 C 390.128906 356.492188 389.066406 356.996094 388.023438 357.550781 C 386.984375 358.105469 385.972656 358.710938 384.992188 359.367188 C 384.011719 360.023438 383.066406 360.726562 382.15625 361.472656 C 381.242188 362.222656 380.371094 363.011719 379.535156 363.847656 C 378.703125 364.679688 377.910156 365.554688 377.164062 366.464844 C 376.414062 367.375 375.714844 368.324219 375.058594 369.304688 C 374.402344 370.285156 373.796875 371.292969 373.242188 372.335938 C 372.6875 373.375 372.183594 374.4375 371.730469 375.527344 C 371.28125 376.617188 370.882812 377.726562 370.539062 378.855469 C 370.199219 379.984375 369.910156 381.128906 369.679688 382.285156 C 369.453125 383.441406 369.277344 384.605469 369.164062 385.78125 C 369.046875 386.953125 368.988281 388.128906 368.988281 389.308594 C 368.988281 390.488281 369.046875 391.664062 369.164062 392.839844 C 369.277344 394.011719 369.453125 395.175781 369.679688 396.335938 C 369.910156 397.492188 370.199219 398.632812 370.539062 399.761719 C 370.882812 400.890625 371.28125 402 371.730469 403.089844 C 372.183594 404.179688 372.6875 405.246094 373.242188 406.285156 C 373.796875 407.324219 374.402344 408.335938 375.058594 409.316406 C 375.714844 410.296875 376.414062 411.242188 377.164062 412.152344 C 377.910156 413.066406 378.703125 413.9375 379.535156 414.773438 C 380.371094 415.605469 381.242188 416.398438 382.15625 417.144531 C 383.066406 417.894531 384.011719 418.59375 384.992188 419.25 C 385.972656 419.90625 386.984375 420.511719 388.023438 421.066406 C 389.066406 421.625 390.128906 422.128906 391.21875 422.578125 C 392.308594 423.03125 393.417969 423.425781 394.546875 423.769531 C 395.675781 424.109375 396.816406 424.398438 397.976562 424.628906 C 399.132812 424.859375 400.296875 425.03125 401.46875 425.144531 C 402.644531 425.261719 403.820312 425.320312 405 425.320312 C 406.179688 425.320312 407.355469 425.261719 408.53125 425.144531 C 409.703125 425.03125 410.867188 424.859375 412.023438 424.628906 C 413.183594 424.398438 414.324219 424.109375 415.453125 423.769531 C 416.582031 423.425781 417.691406 423.03125 418.78125 422.578125 C 419.871094 422.128906 420.933594 421.625 421.976562 421.066406 C 423.015625 420.511719 424.027344 419.90625 425.007812 419.25 C 425.988281 418.59375 426.933594 417.894531 427.84375 417.144531 C 428.757812 416.398438 429.628906 415.605469 430.464844 414.773438 C 431.296875 413.9375 432.089844 413.066406 432.835938 412.152344 C 433.585938 411.242188 434.285156 410.296875 434.941406 409.316406 C 435.597656 408.335938 436.203125 407.324219 436.757812 406.285156 C 437.3125 405.246094 437.816406 404.179688 438.269531 403.089844 C 438.71875 402 439.117188 400.890625 439.460938 399.761719 C 439.800781 398.632812 440.089844 397.492188 440.316406 396.335938 C 440.546875 395.175781 440.722656 394.011719 440.835938 392.839844 C 440.953125 391.664062 441.011719 390.488281 441.011719 389.308594 C 441.011719 388.128906 440.953125 386.953125 440.835938 385.777344 C 440.722656 384.605469 440.546875 383.4375 440.320312 382.28125 C 440.089844 381.125 439.800781 379.980469 439.460938 378.851562 C 439.117188 377.722656 438.722656 376.613281 438.269531 375.523438 C 437.820312 374.429688 437.316406 373.367188 436.757812 372.324219 C 436.203125 371.285156 435.597656 370.273438 434.941406 369.292969 C 434.289062 368.308594 433.585938 367.363281 432.839844 366.449219 C 432.089844 365.539062 431.300781 364.664062 430.464844 363.828125 C 429.632812 362.996094 428.757812 362.203125 427.847656 361.453125 C 426.9375 360.703125 425.992188 360 425.007812 359.34375 C 424.027344 358.6875 423.019531 358.082031 421.980469 357.523438 C 420.9375 356.96875 419.875 356.464844 418.785156 356.011719 C 417.695312 355.558594 416.585938 355.160156 415.457031 354.816406 C 414.328125 354.472656 413.183594 354.183594 412.027344 353.953125 C 410.871094 353.722656 409.707031 353.546875 408.53125 353.429688 C 407.355469 353.3125 406.179688 353.253906 405 353.253906 Z M 405 353.300781 " fill-opacity="1" fill-rule="nonzero"/><path fill="#ffc832" d="M 405 416.292969 C 404.113281 416.292969 403.230469 416.25 402.351562 416.164062 C 401.46875 416.078125 400.59375 415.945312 399.726562 415.773438 C 398.859375 415.601562 398 415.386719 397.152344 415.128906 C 396.304688 414.871094 395.472656 414.574219 394.65625 414.234375 C 393.835938 413.898438 393.039062 413.519531 392.257812 413.101562 C 391.476562 412.683594 390.71875 412.230469 389.984375 411.738281 C 389.246094 411.246094 388.535156 410.71875 387.851562 410.15625 C 387.167969 409.597656 386.511719 409.003906 385.886719 408.375 C 385.261719 407.75 384.667969 407.09375 384.105469 406.410156 C 383.542969 405.726562 383.015625 405.015625 382.523438 404.28125 C 382.03125 403.542969 381.578125 402.785156 381.160156 402.003906 C 380.742188 401.222656 380.367188 400.425781 380.027344 399.605469 C 379.6875 398.789062 379.390625 397.957031 379.132812 397.109375 C 378.875 396.261719 378.660156 395.40625 378.488281 394.535156 C 378.316406 393.667969 378.1875 392.792969 378.097656 391.914062 C 378.011719 391.03125 377.96875 390.148438 377.96875 389.261719 C 377.96875 388.378906 378.011719 387.496094 378.097656 386.613281 C 378.1875 385.730469 378.316406 384.859375 378.488281 383.988281 C 378.660156 383.121094 378.875 382.261719 379.132812 381.417969 C 379.390625 380.570312 379.6875 379.738281 380.027344 378.917969 C 380.367188 378.101562 380.742188 377.300781 381.160156 376.519531 C 381.578125 375.738281 382.03125 374.980469 382.523438 374.246094 C 383.015625 373.507812 383.542969 372.800781 384.105469 372.113281 C 384.667969 371.429688 385.261719 370.773438 385.886719 370.148438 C 386.511719 369.523438 387.167969 368.929688 387.851562 368.367188 C 388.535156 367.804688 389.246094 367.28125 389.984375 366.789062 C 390.71875 366.296875 391.476562 365.839844 392.257812 365.421875 C 393.039062 365.007812 393.835938 364.628906 394.65625 364.289062 C 395.472656 363.949219 396.304688 363.652344 397.152344 363.394531 C 398 363.140625 398.859375 362.925781 399.726562 362.75 C 400.59375 362.578125 401.46875 362.449219 402.351562 362.363281 C 403.230469 362.277344 404.113281 362.230469 405 362.230469 C 405.886719 362.230469 406.769531 362.277344 407.648438 362.363281 C 408.53125 362.449219 409.40625 362.578125 410.273438 362.75 C 411.140625 362.925781 412 363.140625 412.847656 363.394531 C 413.695312 363.652344 414.527344 363.949219 415.34375 364.289062 C 416.164062 364.628906 416.960938 365.007812 417.742188 365.421875 C 418.523438 365.839844 419.28125 366.296875 420.015625 366.789062 C 420.753906 367.28125 421.464844 367.804688 422.148438 368.367188 C 422.832031 368.929688 423.488281 369.523438 424.113281 370.148438 C 424.738281 370.773438 425.332031 371.429688 425.894531 372.113281 C 426.457031 372.800781 426.984375 373.507812 427.476562 374.246094 C 427.96875 374.980469 428.421875 375.738281 428.839844 376.519531 C 429.257812 377.300781 429.632812 378.101562 429.972656 378.917969 C 430.3125 379.738281 430.609375 380.570312 430.867188 381.417969 C 431.125 382.261719 431.339844 383.121094 431.511719 383.988281 C 431.683594 384.859375 431.8125 385.730469 431.902344 386.613281 C 431.988281 387.496094 432.03125 388.378906 432.03125 389.261719 C 432.03125 390.148438 431.988281 391.03125 431.902344 391.914062 C 431.8125 392.792969 431.683594 393.667969 431.511719 394.535156 C 431.339844 395.40625 431.125 396.261719 430.867188 397.109375 C 430.609375 397.957031 430.3125 398.789062 429.972656 399.605469 C 429.632812 400.425781 429.257812 401.222656 428.839844 402.003906 C 428.421875 402.785156 427.96875 403.542969 427.476562 404.28125 C 426.984375 405.015625 426.457031 405.726562 425.894531 406.410156 C 425.332031 407.09375 424.738281 407.75 424.113281 408.375 C 423.488281 409.003906 422.832031 409.597656 422.148438 410.15625 C 421.464844 410.71875 420.753906 411.246094 420.015625 411.738281 C 419.28125 412.230469 418.523438 412.683594 417.742188 413.101562 C 416.960938 413.519531 416.164062 413.898438 415.34375 414.234375 C 414.527344 414.574219 413.695312 414.871094 412.847656 415.128906 C 412 415.386719 411.140625 415.601562 410.273438 415.773438 C 409.40625 415.945312 408.53125 416.078125 407.648438 416.164062 C 406.769531 416.25 405.886719 416.292969 405 416.292969 Z M 405 367.414062 C 404.285156 367.414062 403.570312 367.449219 402.859375 367.519531 C 402.148438 367.589844 401.441406 367.695312 400.738281 367.835938 C 400.035156 367.976562 399.34375 368.148438 398.65625 368.355469 C 397.972656 368.5625 397.300781 368.804688 396.640625 369.078125 C 395.976562 369.351562 395.332031 369.660156 394.703125 369.996094 C 394.070312 370.332031 393.457031 370.699219 392.863281 371.097656 C 392.269531 371.496094 391.695312 371.921875 391.140625 372.375 C 390.585938 372.828125 390.058594 373.308594 389.550781 373.816406 C 389.046875 374.320312 388.566406 374.851562 388.113281 375.402344 C 387.660156 375.957031 387.234375 376.53125 386.835938 377.125 C 386.4375 377.71875 386.070312 378.332031 385.734375 378.964844 C 385.394531 379.59375 385.089844 380.242188 384.816406 380.902344 C 384.542969 381.5625 384.300781 382.238281 384.09375 382.921875 C 383.886719 383.605469 383.710938 384.300781 383.574219 385 C 383.433594 385.703125 383.328125 386.410156 383.257812 387.121094 C 383.1875 387.832031 383.152344 388.546875 383.152344 389.261719 C 383.152344 389.976562 383.1875 390.691406 383.257812 391.402344 C 383.328125 392.117188 383.433594 392.824219 383.574219 393.523438 C 383.710938 394.226562 383.886719 394.921875 384.09375 395.605469 C 384.300781 396.289062 384.542969 396.960938 384.816406 397.625 C 385.089844 398.285156 385.394531 398.929688 385.734375 399.5625 C 386.070312 400.191406 386.4375 400.804688 386.835938 401.398438 C 387.234375 401.996094 387.660156 402.570312 388.113281 403.121094 C 388.566406 403.675781 389.046875 404.203125 389.550781 404.710938 C 390.058594 405.21875 390.585938 405.695312 391.140625 406.152344 C 391.695312 406.605469 392.269531 407.03125 392.863281 407.429688 C 393.457031 407.824219 394.070312 408.191406 394.703125 408.53125 C 395.332031 408.867188 395.976562 409.171875 396.640625 409.445312 C 397.300781 409.71875 397.972656 409.960938 398.65625 410.167969 C 399.34375 410.375 400.035156 410.550781 400.738281 410.691406 C 401.441406 410.828125 402.148438 410.933594 402.859375 411.003906 C 403.570312 411.074219 404.285156 411.109375 405 411.109375 C 405.714844 411.109375 406.429688 411.074219 407.140625 411.003906 C 407.851562 410.933594 408.558594 410.828125 409.261719 410.691406 C 409.964844 410.550781 410.65625 410.375 411.34375 410.167969 C 412.027344 409.960938 412.699219 409.71875 413.359375 409.445312 C 414.019531 409.171875 414.667969 408.867188 415.296875 408.53125 C 415.929688 408.191406 416.542969 407.824219 417.136719 407.429688 C 417.730469 407.03125 418.304688 406.605469 418.859375 406.152344 C 419.414062 405.695312 419.941406 405.21875 420.449219 404.710938 C 420.953125 404.203125 421.433594 403.675781 421.886719 403.121094 C 422.339844 402.570312 422.765625 401.996094 423.164062 401.398438 C 423.5625 400.804688 423.929688 400.191406 424.265625 399.5625 C 424.605469 398.929688 424.910156 398.285156 425.183594 397.625 C 425.457031 396.960938 425.699219 396.289062 425.90625 395.605469 C 426.113281 394.921875 426.289062 394.226562 426.425781 393.523438 C 426.566406 392.824219 426.671875 392.117188 426.742188 391.402344 C 426.8125 390.691406 426.847656 389.976562 426.847656 389.261719 C 426.84375 388.546875 426.808594 387.835938 426.738281 387.121094 C 426.667969 386.410156 426.558594 385.703125 426.417969 385.003906 C 426.277344 384.304688 426.105469 383.609375 425.894531 382.925781 C 425.6875 382.242188 425.445312 381.570312 425.171875 380.910156 C 424.898438 380.25 424.589844 379.605469 424.253906 378.972656 C 423.914062 378.34375 423.546875 377.730469 423.152344 377.136719 C 422.753906 376.542969 422.328125 375.96875 421.875 375.414062 C 421.417969 374.863281 420.941406 374.332031 420.433594 373.828125 C 419.929688 373.324219 419.398438 372.84375 418.847656 372.390625 C 418.292969 371.933594 417.722656 371.507812 417.125 371.113281 C 416.53125 370.714844 415.917969 370.347656 415.289062 370.007812 C 414.660156 369.671875 414.011719 369.367188 413.351562 369.089844 C 412.691406 368.816406 412.019531 368.574219 411.335938 368.367188 C 410.652344 368.160156 409.960938 367.984375 409.257812 367.84375 C 408.558594 367.703125 407.851562 367.597656 407.140625 367.523438 C 406.429688 367.453125 405.714844 367.417969 405 367.414062 Z M 405 367.414062 " fill-opacity="1" fill-rule="nonzero"/><path fill="#ffc832" d="M 457.71875 342.976562 C 457.71875 343.398438 457.679688 343.816406 457.597656 344.230469 C 457.511719 344.648438 457.390625 345.050781 457.230469 345.4375 C 457.066406 345.828125 456.871094 346.199219 456.636719 346.550781 C 456.402344 346.902344 456.132812 347.226562 455.835938 347.527344 C 455.535156 347.824219 455.210938 348.09375 454.859375 348.328125 C 454.507812 348.5625 454.136719 348.757812 453.746094 348.921875 C 453.359375 349.082031 452.957031 349.203125 452.539062 349.289062 C 452.125 349.371094 451.707031 349.410156 451.285156 349.410156 C 450.863281 349.410156 450.445312 349.371094 450.03125 349.289062 C 449.617188 349.203125 449.214844 349.082031 448.824219 348.921875 C 448.433594 348.757812 448.0625 348.5625 447.710938 348.328125 C 447.359375 348.09375 447.035156 347.824219 446.738281 347.527344 C 446.4375 347.226562 446.171875 346.902344 445.9375 346.550781 C 445.703125 346.199219 445.503906 345.828125 445.339844 345.4375 C 445.179688 345.050781 445.058594 344.648438 444.976562 344.230469 C 444.894531 343.816406 444.851562 343.398438 444.851562 342.976562 C 444.851562 342.554688 444.894531 342.136719 444.976562 341.722656 C 445.058594 341.308594 445.179688 340.90625 445.339844 340.515625 C 445.503906 340.125 445.703125 339.753906 445.9375 339.402344 C 446.171875 339.050781 446.4375 338.726562 446.738281 338.429688 C 447.035156 338.128906 447.359375 337.863281 447.710938 337.628906 C 448.0625 337.394531 448.433594 337.195312 448.824219 337.03125 C 449.214844 336.871094 449.617188 336.75 450.03125 336.667969 C 450.445312 336.585938 450.863281 336.542969 451.285156 336.542969 C 451.707031 336.542969 452.125 336.585938 452.539062 336.667969 C 452.957031 336.75 453.359375 336.871094 453.746094 337.03125 C 454.136719 337.195312 454.507812 337.394531 454.859375 337.628906 C 455.210938 337.863281 455.535156 338.128906 455.835938 338.429688 C 456.132812 338.726562 456.402344 339.050781 456.636719 339.402344 C 456.871094 339.753906 457.066406 340.125 457.230469 340.515625 C 457.390625 340.90625 457.511719 341.308594 457.597656 341.722656 C 457.679688 342.136719 457.71875 342.554688 457.71875 342.976562 Z M 457.71875 342.976562 " fill-opacity="1" fill-rule="nonzero"/><path fill="#ffc832" d="M 474.429688 518.398438 L 335.570312 518.398438 C 334.898438 518.398438 334.230469 518.328125 333.570312 518.195312 C 332.910156 518.0625 332.269531 517.863281 331.644531 517.605469 C 331.023438 517.347656 330.433594 517.027344 329.875 516.652344 C 329.3125 516.277344 328.796875 515.851562 328.320312 515.378906 C 327.84375 514.902344 327.417969 514.382812 327.042969 513.824219 C 326.667969 513.261719 326.351562 512.671875 326.089844 512.050781 C 325.832031 511.425781 325.632812 510.785156 325.5 510.125 C 325.367188 509.464844 325.300781 508.796875 325.296875 508.125 L 325.296875 505.53125 C 325.300781 504.859375 325.367188 504.191406 325.5 503.53125 C 325.632812 502.871094 325.832031 502.230469 326.089844 501.609375 C 326.351562 500.984375 326.667969 500.394531 327.042969 499.835938 C 327.417969 499.273438 327.84375 498.757812 328.320312 498.28125 C 328.796875 497.804688 329.3125 497.378906 329.875 497.003906 C 330.433594 496.628906 331.023438 496.3125 331.644531 496.050781 C 332.269531 495.792969 332.910156 495.597656 333.570312 495.460938 C 334.230469 495.328125 334.898438 495.261719 335.570312 495.257812 L 474.429688 495.257812 C 475.101562 495.261719 475.769531 495.328125 476.429688 495.460938 C 477.089844 495.597656 477.730469 495.792969 478.355469 496.050781 C 478.976562 496.3125 479.566406 496.628906 480.125 497.003906 C 480.6875 497.378906 481.203125 497.804688 481.679688 498.28125 C 482.15625 498.757812 482.582031 499.273438 482.957031 499.835938 C 483.332031 500.394531 483.648438 500.984375 483.910156 501.609375 C 484.167969 502.230469 484.367188 502.871094 484.5 503.53125 C 484.632812 504.191406 484.699219 504.859375 484.703125 505.53125 L 484.703125 508.125 C 484.699219 508.796875 484.632812 509.464844 484.5 510.125 C 484.367188 510.785156 484.167969 511.425781 483.910156 512.050781 C 483.648438 512.671875 483.332031 513.261719 482.957031 513.824219 C 482.582031 514.382812 482.15625 514.902344 481.679688 515.378906 C 481.203125 515.851562 480.6875 516.277344 480.125 516.652344 C 479.566406 517.027344 478.976562 517.347656 478.355469 517.605469 C 477.730469 517.863281 477.089844 518.0625 476.429688 518.195312 C 475.769531 518.328125 475.101562 518.398438 474.429688 518.398438 Z M 335.570312 500.394531 C 335.234375 500.394531 334.898438 500.429688 334.570312 500.492188 C 334.238281 500.558594 333.917969 500.65625 333.605469 500.785156 C 333.292969 500.914062 332.996094 501.074219 332.71875 501.261719 C 332.4375 501.449219 332.175781 501.660156 331.9375 501.898438 C 331.699219 502.136719 331.488281 502.398438 331.300781 502.679688 C 331.113281 502.957031 330.953125 503.253906 330.824219 503.566406 C 330.695312 503.878906 330.597656 504.199219 330.53125 504.53125 C 330.464844 504.859375 330.433594 505.195312 330.433594 505.53125 L 330.433594 508.125 C 330.433594 508.460938 330.464844 508.796875 330.53125 509.125 C 330.597656 509.457031 330.695312 509.777344 330.824219 510.089844 C 330.953125 510.402344 331.113281 510.699219 331.300781 510.980469 C 331.488281 511.257812 331.699219 511.519531 331.9375 511.757812 C 332.175781 511.996094 332.4375 512.210938 332.71875 512.394531 C 332.996094 512.582031 333.292969 512.742188 333.605469 512.871094 C 333.917969 513 334.238281 513.097656 334.570312 513.164062 C 334.898438 513.230469 335.234375 513.261719 335.570312 513.261719 L 474.429688 513.261719 C 474.765625 513.261719 475.101562 513.230469 475.429688 513.164062 C 475.761719 513.097656 476.082031 513 476.394531 512.871094 C 476.707031 512.742188 477.003906 512.582031 477.28125 512.394531 C 477.5625 512.207031 477.824219 511.996094 478.0625 511.757812 C 478.300781 511.519531 478.511719 511.257812 478.699219 510.980469 C 478.886719 510.699219 479.046875 510.402344 479.175781 510.089844 C 479.304688 509.777344 479.402344 509.457031 479.46875 509.125 C 479.535156 508.796875 479.566406 508.460938 479.566406 508.125 L 479.566406 505.53125 C 479.566406 505.195312 479.535156 504.859375 479.46875 504.53125 C 479.402344 504.199219 479.304688 503.878906 479.175781 503.566406 C 479.046875 503.253906 478.886719 502.957031 478.699219 502.679688 C 478.511719 502.398438 478.300781 502.136719 478.0625 501.898438 C 477.824219 501.660156 477.5625 501.449219 477.28125 501.261719 C 477.003906 501.074219 476.707031 500.914062 476.394531 500.785156 C 476.082031 500.65625 475.761719 500.558594 475.429688 500.492188 C 475.101562 500.429688 474.765625 500.394531 474.429688 500.394531 Z M 335.570312 500.394531 " fill-opacity="1" fill-rule="nonzero"/></svg>