<svg xmlns="http://www.w3.org/2000/svg" xmlns:xlink="http://www.w3.org/1999/xlink" width="1080" zoomAndPan="magnify" viewBox="0 0 810 809.999993" height="1080" preserveAspectRatio="xMidYMid meet" version="1.0"><defs><clipPath id="9a80299e04"><path d="M 300.023438 238.101562 L 510 238.101562 L 510 495.351562 L 300.023438 495.351562 Z M 300.023438 238.101562 " clip-rule="nonzero"/></clipPath></defs><g clip-path="url(#9a80299e04)"><path fill="#ffd832" d="M 387.144531 388.945312 L 445.308594 330.722656 C 445.609375 330.433594 445.933594 330.175781 446.285156 329.949219 C 446.636719 329.722656 447.003906 329.53125 447.394531 329.375 C 447.78125 329.21875 448.179688 329.101562 448.589844 329.019531 C 449 328.941406 449.414062 328.898438 449.832031 328.898438 C 450.25 328.894531 450.664062 328.933594 451.074219 329.011719 C 451.484375 329.089844 451.882812 329.207031 452.269531 329.359375 C 452.660156 329.515625 453.03125 329.703125 453.382812 329.929688 C 453.734375 330.152344 454.0625 330.410156 454.363281 330.695312 C 454.664062 330.992188 454.929688 331.316406 455.164062 331.667969 C 455.398438 332.015625 455.59375 332.382812 455.757812 332.773438 C 455.917969 333.160156 456.039062 333.5625 456.125 333.972656 C 456.207031 334.386719 456.25 334.800781 456.25 335.222656 C 456.25 335.640625 456.210938 336.058594 456.128906 336.472656 C 456.050781 336.882812 455.929688 337.285156 455.769531 337.675781 C 455.613281 338.0625 455.414062 338.433594 455.183594 338.785156 C 454.953125 339.136719 454.6875 339.460938 454.390625 339.757812 L 390.941406 403.273438 C 390.34375 403.878906 389.652344 404.34375 388.867188 404.671875 C 388.082031 404.996094 387.265625 405.160156 386.414062 405.160156 L 386.394531 405.160156 C 385.546875 405.164062 384.734375 405.003906 383.953125 404.679688 C 383.171875 404.359375 382.480469 403.898438 381.882812 403.300781 C 381.625 403.042969 381.386719 402.761719 381.175781 402.460938 L 355.046875 371.40625 C 354.796875 371.066406 354.582031 370.703125 354.402344 370.320312 C 354.226562 369.933594 354.085938 369.539062 353.984375 369.128906 C 353.886719 368.714844 353.828125 368.300781 353.8125 367.875 C 353.792969 367.453125 353.816406 367.035156 353.882812 366.617188 C 353.949219 366.199219 354.054688 365.792969 354.203125 365.394531 C 354.351562 364.996094 354.535156 364.621094 354.753906 364.257812 C 354.976562 363.898438 355.230469 363.5625 355.519531 363.253906 C 355.808594 362.945312 356.121094 362.664062 356.464844 362.417969 C 356.808594 362.171875 357.171875 361.960938 357.558594 361.785156 C 357.941406 361.609375 358.339844 361.472656 358.753906 361.378906 C 359.164062 361.28125 359.582031 361.226562 360.003906 361.210938 C 360.425781 361.199219 360.847656 361.226562 361.265625 361.296875 C 361.683594 361.363281 362.089844 361.476562 362.484375 361.625 C 362.878906 361.773438 363.257812 361.960938 363.613281 362.1875 C 363.972656 362.410156 364.304688 362.667969 364.613281 362.957031 C 364.921875 363.25 365.195312 363.566406 365.441406 363.910156 Z M 509.71875 384.144531 C 509.875 403.226562 498.789062 425.738281 478.496094 447.527344 C 469.753906 456.894531 460.179688 465.316406 449.769531 472.789062 L 449.320312 473.082031 C 449.136719 473.183594 448.964844 473.300781 448.804688 473.441406 L 448.382812 473.78125 C 435.980469 482.726562 422.566406 489.742188 408.144531 494.820312 L 406.316406 495.425781 L 404.480469 494.847656 C 400.089844 493.449219 395.785156 491.820312 391.566406 489.964844 C 391.304688 489.828125 391.035156 489.710938 390.761719 489.609375 L 390.402344 489.457031 C 379.71875 484.488281 369.582031 478.582031 359.992188 471.734375 C 350.402344 464.890625 341.523438 457.222656 333.355469 448.734375 C 324.710938 439.929688 317.324219 430.175781 311.191406 419.476562 L 310.964844 419.027344 C 310.871094 418.828125 310.757812 418.636719 310.625 418.457031 L 310.378906 418.042969 C 307.550781 413.136719 305.347656 407.964844 303.777344 402.527344 C 302.203125 397.085938 301.304688 391.539062 301.082031 385.878906 L 300.332031 294.097656 L 300.777344 293.855469 L 404.175781 238.101562 L 404.574219 238.308594 L 508.957031 292.402344 Z M 497.164062 299.640625 L 404.296875 251.535156 L 312.265625 301.15625 L 312.964844 385.785156 C 313.183594 390.4375 313.949219 395 315.265625 399.46875 C 316.578125 403.9375 318.40625 408.1875 320.738281 412.21875 C 321.09375 412.765625 321.40625 413.328125 321.683594 413.917969 C 327.300781 423.632812 334.039062 432.496094 341.90625 440.503906 C 349.523438 448.421875 357.800781 455.578125 366.738281 461.972656 C 375.675781 468.367188 385.121094 473.886719 395.078125 478.542969 C 395.609375 478.738281 396.128906 478.964844 396.636719 479.21875 C 399.804688 480.578125 403.128906 481.871094 406.210938 482.910156 C 418.746094 478.25 430.445312 472.015625 441.308594 464.210938 C 441.863281 463.753906 442.445312 463.339844 443.0625 462.96875 C 452.742188 455.996094 461.652344 448.148438 469.796875 439.425781 C 488.011719 419.867188 497.964844 400.261719 497.835938 384.230469 Z M 497.164062 299.640625 " fill-opacity="1" fill-rule="nonzero"/></g></svg>