<svg xmlns="http://www.w3.org/2000/svg" xmlns:xlink="http://www.w3.org/1999/xlink" width="1080" zoomAndPan="magnify" viewBox="0 0 810 809.999993" height="1080" preserveAspectRatio="xMidYMid meet" version="1.0"><defs><clipPath id="2ad6dc5b8e"><path d="M 251.527344 287.429688 L 558.277344 287.429688 L 558.277344 505.679688 L 251.527344 505.679688 Z M 251.527344 287.429688 " clip-rule="nonzero"/></clipPath></defs><g clip-path="url(#2ad6dc5b8e)"><path fill="#ffd832" d="M 503.042969 505.6875 L 306.820312 505.6875 C 276.429688 505.6875 251.699219 480.953125 251.699219 450.546875 L 251.699219 342.5625 C 251.699219 312.160156 276.429688 287.425781 306.820312 287.425781 L 503.042969 287.425781 C 533.433594 287.425781 558.160156 312.160156 558.160156 342.5625 L 558.160156 450.546875 C 558.160156 480.953125 533.433594 505.6875 503.042969 505.6875 Z M 306.820312 299.644531 C 283.164062 299.644531 263.917969 318.898438 263.917969 342.5625 L 263.917969 450.546875 C 263.917969 474.214844 283.164062 493.464844 306.820312 493.464844 L 503.042969 493.464844 C 526.699219 493.464844 545.945312 474.214844 545.945312 450.546875 L 545.945312 342.5625 C 545.945312 318.898438 526.699219 299.644531 503.042969 299.644531 Z M 378.769531 445.238281 C 376.148438 445.238281 373.53125 444.546875 371.144531 443.171875 C 366.371094 440.414062 363.519531 435.472656 363.519531 429.960938 L 363.519531 354.589844 C 363.519531 349.074219 366.367188 344.136719 371.144531 341.378906 C 375.917969 338.625 381.617188 338.621094 386.390625 341.378906 L 451.640625 379.066406 C 456.414062 381.820312 459.265625 386.761719 459.265625 392.273438 C 459.265625 397.789062 456.414062 402.726562 451.640625 405.484375 L 386.390625 443.167969 C 384.003906 444.546875 381.386719 445.238281 378.769531 445.238281 Z M 378.78125 351.546875 C 378.082031 351.546875 377.527344 351.804688 377.25 351.964844 C 376.796875 352.226562 375.734375 353.007812 375.734375 354.589844 L 375.734375 429.960938 C 375.734375 431.539062 376.796875 432.324219 377.25 432.585938 C 377.707031 432.851562 378.917969 433.375 380.285156 432.585938 L 445.535156 394.902344 C 446.902344 394.113281 447.050781 392.800781 447.050781 392.273438 C 447.050781 391.75 446.902344 390.4375 445.535156 389.648438 L 380.285156 351.964844 C 379.746094 351.652344 379.234375 351.546875 378.78125 351.546875 Z M 448.585938 400.195312 L 448.59375 400.195312 Z M 448.585938 400.195312 " fill-opacity="1" fill-rule="nonzero"/></g></svg>