<svg xmlns="http://www.w3.org/2000/svg" xmlns:xlink="http://www.w3.org/1999/xlink" width="70" zoomAndPan="magnify" viewBox="0 0 52.5 52.499999" height="70" preserveAspectRatio="xMidYMid meet" version="1.0"><path fill="#ffc832" d="M 26.25 39.53125 C 25.730469 39.53125 25.214844 39.507812 24.699219 39.457031 C 24.183594 39.40625 23.671875 39.328125 23.164062 39.226562 C 22.65625 39.128906 22.152344 39 21.65625 38.851562 C 21.160156 38.699219 20.671875 38.527344 20.195312 38.328125 C 19.714844 38.128906 19.246094 37.910156 18.789062 37.664062 C 18.332031 37.421875 17.890625 37.152344 17.457031 36.867188 C 17.027344 36.578125 16.613281 36.269531 16.210938 35.941406 C 15.8125 35.613281 15.425781 35.265625 15.0625 34.898438 C 14.695312 34.53125 14.347656 34.148438 14.019531 33.746094 C 13.6875 33.347656 13.378906 32.929688 13.09375 32.5 C 12.804688 32.070312 12.539062 31.625 12.292969 31.167969 C 12.050781 30.710938 11.828125 30.242188 11.628906 29.765625 C 11.433594 29.285156 11.257812 28.800781 11.105469 28.304688 C 10.957031 27.808594 10.832031 27.304688 10.730469 26.796875 C 10.628906 26.289062 10.550781 25.777344 10.5 25.261719 C 10.449219 24.746094 10.425781 24.226562 10.425781 23.710938 C 10.425781 23.191406 10.449219 22.675781 10.5 22.160156 C 10.550781 21.644531 10.628906 21.132812 10.730469 20.621094 C 10.828125 20.113281 10.957031 19.613281 11.105469 19.117188 C 11.257812 18.621094 11.429688 18.132812 11.628906 17.65625 C 11.828125 17.175781 12.046875 16.707031 12.292969 16.25 C 12.535156 15.792969 12.800781 15.347656 13.089844 14.917969 C 13.378906 14.488281 13.6875 14.070312 14.015625 13.671875 C 14.34375 13.269531 14.691406 12.886719 15.058594 12.519531 C 15.421875 12.152344 15.808594 11.804688 16.207031 11.476562 C 16.609375 11.148438 17.023438 10.839844 17.453125 10.550781 C 17.886719 10.265625 18.328125 9.996094 18.785156 9.753906 C 19.242188 9.507812 19.710938 9.289062 20.191406 9.089844 C 20.667969 8.890625 21.15625 8.714844 21.652344 8.566406 C 22.148438 8.414062 22.648438 8.289062 23.15625 8.1875 C 23.667969 8.085938 24.179688 8.011719 24.695312 7.960938 C 25.210938 7.910156 25.726562 7.882812 26.246094 7.882812 C 26.761719 7.882812 27.28125 7.90625 27.796875 7.957031 C 28.3125 8.007812 28.824219 8.085938 29.332031 8.183594 C 29.839844 8.285156 30.34375 8.410156 30.839844 8.5625 C 31.335938 8.710938 31.820312 8.886719 32.300781 9.085938 C 32.78125 9.28125 33.246094 9.503906 33.703125 9.75 C 34.160156 9.992188 34.605469 10.257812 35.035156 10.546875 C 35.46875 10.832031 35.882812 11.140625 36.285156 11.472656 C 36.683594 11.800781 37.070312 12.148438 37.433594 12.511719 C 37.800781 12.878906 38.148438 13.261719 38.480469 13.664062 C 38.808594 14.0625 39.117188 14.480469 39.40625 14.910156 C 39.691406 15.339844 39.957031 15.785156 40.203125 16.242188 C 40.449219 16.699219 40.667969 17.167969 40.867188 17.644531 C 41.066406 18.125 41.242188 18.609375 41.390625 19.105469 C 41.542969 19.601562 41.667969 20.105469 41.769531 20.613281 C 41.871094 21.121094 41.945312 21.632812 42 22.148438 C 42.050781 22.664062 42.074219 23.183594 42.074219 23.699219 C 42.074219 24.21875 42.046875 24.734375 41.996094 25.25 C 41.945312 25.765625 41.871094 26.277344 41.769531 26.785156 C 41.667969 27.296875 41.539062 27.796875 41.390625 28.292969 C 41.238281 28.789062 41.066406 29.277344 40.867188 29.753906 C 40.667969 30.234375 40.445312 30.703125 40.203125 31.160156 C 39.957031 31.617188 39.691406 32.058594 39.402344 32.488281 C 39.117188 32.921875 38.808594 33.335938 38.480469 33.738281 C 38.148438 34.136719 37.800781 34.523438 37.4375 34.886719 C 37.070312 35.253906 36.6875 35.601562 36.285156 35.929688 C 35.886719 36.261719 35.46875 36.570312 35.039062 36.855469 C 34.609375 37.144531 34.164062 37.410156 33.707031 37.65625 C 33.25 37.902344 32.78125 38.121094 32.304688 38.320312 C 31.824219 38.519531 31.339844 38.695312 30.84375 38.84375 C 30.347656 38.996094 29.84375 39.121094 29.335938 39.222656 C 28.828125 39.328125 28.316406 39.402344 27.800781 39.453125 C 27.285156 39.503906 26.769531 39.53125 26.25 39.53125 Z M 26.25 8.714844 C 25.265625 8.714844 24.289062 8.8125 23.324219 9.003906 C 22.359375 9.195312 21.417969 9.480469 20.507812 9.855469 C 19.601562 10.234375 18.734375 10.695312 17.917969 11.242188 C 17.097656 11.789062 16.339844 12.410156 15.644531 13.109375 C 14.945312 13.804688 14.324219 14.5625 13.777344 15.382812 C 13.230469 16.199219 12.769531 17.066406 12.390625 17.976562 C 12.015625 18.882812 11.730469 19.824219 11.539062 20.789062 C 11.347656 21.753906 11.25 22.730469 11.25 23.714844 C 11.25 24.699219 11.347656 25.675781 11.539062 26.640625 C 11.730469 27.605469 12.015625 28.546875 12.390625 29.457031 C 12.769531 30.363281 13.230469 31.230469 13.777344 32.046875 C 14.324219 32.867188 14.945312 33.625 15.644531 34.320312 C 16.339844 35.019531 17.097656 35.640625 17.917969 36.1875 C 18.734375 36.734375 19.601562 37.195312 20.507812 37.574219 C 21.417969 37.949219 22.359375 38.234375 23.324219 38.425781 C 24.289062 38.617188 25.265625 38.714844 26.25 38.714844 C 27.234375 38.714844 28.210938 38.617188 29.175781 38.425781 C 30.140625 38.234375 31.082031 37.949219 31.992188 37.574219 C 32.898438 37.195312 33.765625 36.734375 34.582031 36.1875 C 35.402344 35.640625 36.160156 35.019531 36.855469 34.320312 C 37.554688 33.625 38.175781 32.867188 38.722656 32.046875 C 39.269531 31.230469 39.730469 30.363281 40.109375 29.457031 C 40.484375 28.546875 40.769531 27.605469 40.960938 26.640625 C 41.152344 25.675781 41.25 24.699219 41.25 23.714844 C 41.25 22.730469 41.15625 21.753906 40.964844 20.789062 C 40.769531 19.820312 40.488281 18.882812 40.109375 17.972656 C 39.734375 17.0625 39.273438 16.195312 38.726562 15.378906 C 38.175781 14.558594 37.554688 13.800781 36.859375 13.105469 C 36.164062 12.40625 35.40625 11.785156 34.585938 11.238281 C 33.765625 10.691406 32.902344 10.226562 31.992188 9.851562 C 31.082031 9.472656 30.144531 9.1875 29.175781 8.996094 C 28.210938 8.804688 27.234375 8.707031 26.25 8.707031 Z M 26.25 8.714844 " fill-opacity="1" fill-rule="nonzero"/><path fill="#ffc832" d="M 26.25 30.375 C 25.8125 30.375 25.378906 30.332031 24.949219 30.246094 C 24.519531 30.160156 24.101562 30.035156 23.699219 29.867188 C 23.292969 29.699219 22.910156 29.496094 22.546875 29.25 C 22.183594 29.007812 21.84375 28.730469 21.535156 28.421875 C 21.226562 28.113281 20.949219 27.777344 20.707031 27.410156 C 20.464844 27.046875 20.257812 26.664062 20.089844 26.257812 C 19.921875 25.855469 19.796875 25.4375 19.710938 25.007812 C 19.625 24.578125 19.582031 24.144531 19.582031 23.707031 C 19.582031 23.269531 19.625 22.835938 19.710938 22.40625 C 19.796875 21.976562 19.921875 21.558594 20.089844 21.15625 C 20.257812 20.75 20.464844 20.367188 20.707031 20.003906 C 20.949219 19.640625 21.226562 19.300781 21.535156 18.992188 C 21.84375 18.683594 22.183594 18.40625 22.546875 18.164062 C 22.910156 17.921875 23.292969 17.714844 23.699219 17.546875 C 24.101562 17.378906 24.519531 17.253906 24.949219 17.167969 C 25.378906 17.082031 25.8125 17.039062 26.25 17.039062 C 26.6875 17.039062 27.121094 17.082031 27.550781 17.167969 C 27.980469 17.253906 28.398438 17.378906 28.800781 17.546875 C 29.207031 17.714844 29.589844 17.921875 29.953125 18.164062 C 30.316406 18.40625 30.65625 18.683594 30.964844 18.992188 C 31.273438 19.300781 31.550781 19.640625 31.792969 20.003906 C 32.035156 20.367188 32.242188 20.75 32.410156 21.15625 C 32.578125 21.558594 32.703125 21.976562 32.789062 22.40625 C 32.875 22.835938 32.917969 23.269531 32.917969 23.707031 C 32.917969 24.144531 32.875 24.578125 32.789062 25.007812 C 32.703125 25.4375 32.574219 25.855469 32.40625 26.257812 C 32.242188 26.664062 32.035156 27.046875 31.792969 27.410156 C 31.546875 27.773438 31.273438 28.109375 30.960938 28.421875 C 30.652344 28.730469 30.316406 29.003906 29.953125 29.25 C 29.589844 29.492188 29.203125 29.699219 28.800781 29.867188 C 28.394531 30.03125 27.980469 30.160156 27.550781 30.246094 C 27.121094 30.332031 26.6875 30.375 26.25 30.375 Z M 26.25 17.871094 C 25.867188 17.871094 25.488281 17.910156 25.113281 17.984375 C 24.734375 18.058594 24.371094 18.171875 24.015625 18.316406 C 23.664062 18.464844 23.328125 18.644531 23.007812 18.855469 C 22.691406 19.070312 22.394531 19.3125 22.125 19.582031 C 21.851562 19.851562 21.609375 20.148438 21.398438 20.464844 C 21.183594 20.785156 21.003906 21.121094 20.859375 21.472656 C 20.710938 21.828125 20.601562 22.195312 20.527344 22.570312 C 20.453125 22.945312 20.414062 23.324219 20.414062 23.707031 C 20.414062 24.089844 20.453125 24.46875 20.527344 24.847656 C 20.601562 25.222656 20.710938 25.585938 20.859375 25.941406 C 21.003906 26.292969 21.183594 26.628906 21.398438 26.949219 C 21.609375 27.269531 21.851562 27.5625 22.125 27.832031 C 22.394531 28.105469 22.691406 28.347656 23.007812 28.558594 C 23.328125 28.773438 23.664062 28.953125 24.015625 29.097656 C 24.371094 29.246094 24.734375 29.355469 25.113281 29.429688 C 25.488281 29.503906 25.867188 29.542969 26.25 29.542969 C 26.632812 29.542969 27.011719 29.503906 27.386719 29.429688 C 27.765625 29.355469 28.128906 29.246094 28.484375 29.097656 C 28.835938 28.953125 29.171875 28.773438 29.492188 28.558594 C 29.808594 28.347656 30.105469 28.105469 30.375 27.832031 C 30.648438 27.5625 30.890625 27.269531 31.101562 26.949219 C 31.316406 26.628906 31.496094 26.292969 31.640625 25.941406 C 31.789062 25.585938 31.898438 25.222656 31.972656 24.847656 C 32.046875 24.46875 32.085938 24.089844 32.085938 23.707031 C 32.085938 23.324219 32.046875 22.945312 31.972656 22.570312 C 31.898438 22.191406 31.789062 21.828125 31.640625 21.472656 C 31.496094 21.121094 31.316406 20.78125 31.101562 20.464844 C 30.890625 20.144531 30.648438 19.851562 30.375 19.578125 C 30.105469 19.308594 29.8125 19.066406 29.492188 18.851562 C 29.171875 18.640625 28.835938 18.457031 28.484375 18.3125 C 28.128906 18.164062 27.765625 18.054688 27.390625 17.980469 C 27.011719 17.902344 26.632812 17.867188 26.25 17.863281 Z M 26.25 17.871094 " fill-opacity="1" fill-rule="nonzero"/><path fill="#ffc832" d="M 26.25 28.078125 C 25.960938 28.078125 25.675781 28.050781 25.394531 27.996094 C 25.113281 27.941406 24.839844 27.855469 24.574219 27.746094 C 24.308594 27.636719 24.054688 27.5 23.816406 27.34375 C 23.578125 27.183594 23.355469 27 23.152344 26.796875 C 22.949219 26.59375 22.769531 26.371094 22.609375 26.132812 C 22.449219 25.894531 22.3125 25.640625 22.203125 25.375 C 22.09375 25.109375 22.011719 24.835938 21.953125 24.554688 C 21.898438 24.273438 21.871094 23.988281 21.871094 23.699219 C 21.871094 23.414062 21.898438 23.128906 21.953125 22.84375 C 22.011719 22.5625 22.09375 22.289062 22.203125 22.023438 C 22.3125 21.757812 22.449219 21.503906 22.609375 21.265625 C 22.769531 21.027344 22.949219 20.804688 23.152344 20.601562 C 23.355469 20.398438 23.578125 20.21875 23.816406 20.058594 C 24.054688 19.898438 24.308594 19.761719 24.574219 19.652344 C 24.839844 19.542969 25.113281 19.460938 25.394531 19.402344 C 25.675781 19.347656 25.960938 19.320312 26.25 19.320312 C 26.539062 19.320312 26.824219 19.347656 27.105469 19.402344 C 27.386719 19.460938 27.660156 19.542969 27.925781 19.652344 C 28.191406 19.761719 28.445312 19.898438 28.683594 20.058594 C 28.921875 20.21875 29.144531 20.398438 29.347656 20.601562 C 29.550781 20.804688 29.730469 21.027344 29.890625 21.265625 C 30.050781 21.503906 30.1875 21.757812 30.296875 22.023438 C 30.40625 22.289062 30.488281 22.5625 30.546875 22.84375 C 30.601562 23.128906 30.628906 23.414062 30.628906 23.699219 C 30.628906 23.988281 30.601562 24.273438 30.546875 24.554688 C 30.488281 24.835938 30.40625 25.109375 30.296875 25.375 C 30.1875 25.640625 30.050781 25.894531 29.890625 26.132812 C 29.730469 26.371094 29.550781 26.59375 29.347656 26.796875 C 29.144531 27 28.921875 27.183594 28.683594 27.34375 C 28.445312 27.5 28.191406 27.636719 27.925781 27.746094 C 27.660156 27.855469 27.386719 27.941406 27.105469 27.996094 C 26.824219 28.050781 26.539062 28.078125 26.25 28.078125 Z M 26.25 20.160156 C 25.78125 20.160156 25.328125 20.25 24.894531 20.429688 C 24.460938 20.609375 24.078125 20.863281 23.746094 21.195312 C 23.414062 21.527344 23.160156 21.910156 22.980469 22.34375 C 22.800781 22.777344 22.710938 23.230469 22.710938 23.699219 C 22.710938 24.167969 22.800781 24.621094 22.980469 25.054688 C 23.160156 25.488281 23.414062 25.871094 23.746094 26.203125 C 24.078125 26.535156 24.460938 26.789062 24.894531 26.96875 C 25.328125 27.148438 25.78125 27.238281 26.25 27.238281 C 26.71875 27.238281 27.171875 27.148438 27.605469 26.96875 C 28.039062 26.789062 28.421875 26.535156 28.753906 26.203125 C 29.085938 25.871094 29.339844 25.488281 29.519531 25.054688 C 29.699219 24.621094 29.789062 24.167969 29.789062 23.699219 C 29.789062 23.230469 29.699219 22.78125 29.519531 22.347656 C 29.339844 21.914062 29.082031 21.53125 28.75 21.199219 C 28.417969 20.867188 28.035156 20.613281 27.605469 20.429688 C 27.171875 20.25 26.71875 20.160156 26.25 20.160156 Z M 26.25 20.160156 " fill-opacity="1" fill-rule="nonzero"/><path fill="#ffc832" d="M 34.792969 16.199219 C 34.792969 16.339844 34.765625 16.472656 34.714844 16.597656 C 34.660156 16.726562 34.585938 16.839844 34.488281 16.9375 C 34.390625 17.035156 34.277344 17.109375 34.148438 17.164062 C 34.019531 17.214844 33.886719 17.242188 33.75 17.242188 C 33.613281 17.242188 33.480469 17.214844 33.351562 17.164062 C 33.222656 17.109375 33.109375 17.035156 33.011719 16.9375 C 32.914062 16.839844 32.839844 16.726562 32.785156 16.597656 C 32.734375 16.472656 32.707031 16.339844 32.707031 16.199219 C 32.707031 16.0625 32.734375 15.929688 32.785156 15.800781 C 32.839844 15.671875 32.914062 15.5625 33.011719 15.460938 C 33.109375 15.363281 33.222656 15.289062 33.351562 15.238281 C 33.480469 15.183594 33.613281 15.15625 33.75 15.15625 C 33.886719 15.15625 34.019531 15.183594 34.148438 15.238281 C 34.277344 15.289062 34.390625 15.363281 34.488281 15.460938 C 34.585938 15.5625 34.660156 15.671875 34.714844 15.800781 C 34.765625 15.929688 34.792969 16.0625 34.792969 16.199219 Z M 34.792969 16.199219 " fill-opacity="1" fill-rule="nonzero"/><path fill="#ffc832" d="M 37.5 44.625 L 15 44.625 C 14.78125 44.625 14.566406 44.582031 14.363281 44.496094 C 14.160156 44.410156 13.980469 44.292969 13.824219 44.136719 C 13.667969 43.980469 13.546875 43.800781 13.464844 43.597656 C 13.378906 43.390625 13.335938 43.179688 13.335938 42.960938 L 13.335938 42.539062 C 13.335938 42.320312 13.378906 42.109375 13.464844 41.902344 C 13.546875 41.699219 13.667969 41.519531 13.824219 41.363281 C 13.980469 41.207031 14.160156 41.089844 14.363281 41.003906 C 14.566406 40.917969 14.78125 40.875 15 40.875 L 37.5 40.875 C 37.71875 40.875 37.933594 40.917969 38.136719 41.003906 C 38.339844 41.089844 38.519531 41.207031 38.675781 41.363281 C 38.832031 41.519531 38.953125 41.699219 39.035156 41.902344 C 39.121094 42.109375 39.164062 42.320312 39.164062 42.539062 L 39.164062 42.960938 C 39.164062 43.179688 39.121094 43.390625 39.035156 43.597656 C 38.953125 43.800781 38.832031 43.980469 38.675781 44.136719 C 38.519531 44.292969 38.339844 44.410156 38.136719 44.496094 C 37.933594 44.582031 37.71875 44.625 37.5 44.625 Z M 15 41.707031 C 14.769531 41.707031 14.574219 41.789062 14.410156 41.953125 C 14.25 42.113281 14.167969 42.308594 14.167969 42.539062 L 14.167969 42.960938 C 14.167969 43.191406 14.25 43.386719 14.410156 43.546875 C 14.574219 43.710938 14.769531 43.792969 15 43.792969 L 37.5 43.792969 C 37.730469 43.792969 37.925781 43.710938 38.089844 43.546875 C 38.25 43.386719 38.332031 43.191406 38.332031 42.960938 L 38.332031 42.539062 C 38.332031 42.308594 38.25 42.113281 38.089844 41.953125 C 37.925781 41.789062 37.730469 41.707031 37.5 41.707031 Z M 15 41.707031 " fill-opacity="1" fill-rule="nonzero"/></svg>